<?xml version="1.0" encoding="utf-8"?>
<!-- Generator: Adobe Illustrator 27.5.0, SVG Export Plug-In . SVG Version: 6.00 Build 0)  -->
<svg version="1.1" id="BASE" xmlns="http://www.w3.org/2000/svg" xmlns:xlink="http://www.w3.org/1999/xlink" x="0px" y="0px"
	 viewBox="0 0 2372 1898" style="enable-background:new 0 0 2372 1898;" xml:space="preserve">
<g>
	<path style="fill:#EDE4C3;" d="M2212.264,1108.32c-3.267-9.866-10.581-15.839-19.063-17.354l-75.398-21.672v-294.83l52.349-35.673
		c17.682-12.048,13.778-39.156-6.581-45.739L843.416,267.522c-29.562-9.538-61.914-5.132-87.906,11.936
		C571.945,400.217,388.436,520.977,204.925,641.737c-14.111,29.283-33.857,78.089-42.503,141.452
		c-2.398,17.515-3.904,36.144-4.239,55.778c-0.39,24.263,1.116,47.132,3.904,68.384c8.478,65.483,29.005,115.628,42.838,144.409
		l1226.95,571.613c40.383,18.797,87.739,14.111,123.66-12.16l108.943-79.73c1.911,14.649,2.28,23.736,2.28,23.736
		s29.274-24.129,44.099-57.677l20.194-14.779l43.874,23.109c0,0,1.276-22.333-1.627-54.028l429.764-314.521
		C2211.873,1130.854,2215.89,1119.363,2212.264,1108.32z"/>
	<g>
		<path style="fill:#D0C9AD;" d="M1834.765,1054.359l226.577-153.874c18.692-6.335,37.579-11.098,56.46-13.932V774.463
			l-604.938,412.224c-10.773,17.659-29.321,51.481-41.078,97.8c-1.58,6.221-3.038,12.664-4.337,19.326
			c-1.799,9.226-3.294,18.868-4.394,28.901c-1.122,9.948-1.817,20.278-2.011,30.992c-0.029,1.542-0.046,3.091-0.053,4.649
			c-0.032,3.946,0.004,7.845,0.101,11.698c0.465,18.46,2.364,35.834,5.223,51.995c0.871,4.926,1.833,9.736,2.868,14.433
			c2.124,9.633,4.563,18.781,7.204,27.406c2.022,6.618,4.16,12.929,6.362,18.92c1.654,4.501,3.345,8.82,5.048,12.954
			c9.098,22.082,18.583,38.848,25.069,49.45c31.877-22.195,63.754-44.39,95.63-66.585c-2.248-12.863,1.426-23.697,7.754-52.069
			c1.619-7.233,3.4-14.452,5.334-21.655l6.493-4.409c8.722,16.498,15.493,33.616,20.746,50.055c0.001,0.003,0.001,0.005,0.002,0.008
			c0.485,1.516,0.956,3.027,1.415,4.531c3.965,12.996,6.993,25.485,9.297,36.81c0.97,4.769,1.814,9.331,2.545,13.637
			c0.99,5.824,1.774,11.181,2.396,15.948c1.911,14.649,2.28,23.736,2.28,23.736s29.274-24.129,44.099-57.677
			c3.049-6.899,5.487-14.196,6.933-21.763l13.261,6.985l43.874,23.109c0,0,1.276-22.333-1.627-54.028
			c-0.455-4.971-1.013-10.173-1.694-15.554c-0.577-4.555-1.245-9.24-2.011-14.023c-1.621-10.098-3.695-20.637-6.34-31.33
			c-0.699-2.827-1.438-5.665-2.221-8.508c0-0.003-0.002-0.006-0.002-0.008c-4.591-16.697-10.64-33.583-18.594-49.591
			c-2.019-4.066-4.163-8.075-6.437-12.01c-7.681-13.294-16.85-25.741-27.79-36.666l148.675-100.969l195.422-132.717l65.499-44.482
			v-16.382l-82.447,55.992l-166.796,113.276l-201.247,136.672c15.269-31.024,32.693-61.306,51.517-90.526l189.322-128.574
			l69.743-47.364l139.907-95.015v-16.382l-156.856,106.525l-41.117,27.924l-180.943,122.884
			c23.913-34.52,49.505-67.316,75.429-97.812C1820.739,1069.649,1827.568,1062.012,1834.765,1054.359z"/>
		<path style="fill:#EC6527;" d="M2212.264,1108.32c-3.267-9.866-10.581-15.839-19.063-17.354l-75.398-21.672v64.687
			c-44.372,30.901-88.744,61.802-133.119,92.703c-74.547,51.912-149.101,103.825-223.655,155.737
			c-4.591-16.697-10.64-33.583-18.594-49.591c-2.019-4.066-4.163-8.075-6.437-12.01c-7.681-13.294-16.85-25.741-27.79-36.666
			c-2.258-2.255-4.591-4.445-7.001-6.564l-37.561,25.509l-69.826,47.42l-4.993,6.767c1.614,1.546,3.195,3.12,4.743,4.721
			c10.777,11.142,19.974,23.586,27.825,36.643c1.091,1.816,2.157,3.644,3.198,5.482c1.194,2.109,2.354,4.231,3.482,6.364
			c8.722,16.498,15.493,33.616,20.746,50.055c-13.443,9.36-26.885,18.719-40.327,28.078c-31.876,22.195-63.753,44.39-95.63,66.585
			c-6.486-10.601-15.971-27.368-25.069-49.45c-1.703-4.134-3.394-8.453-5.048-12.954c-2.202-5.991-4.34-12.302-6.362-18.92
			c-2.641-8.625-5.08-17.773-7.204-27.406c-1.035-4.697-1.997-9.508-2.868-14.433c-2.859-16.16-4.758-33.534-5.223-51.995
			c-0.097-3.853-0.133-7.752-0.101-11.698c0.007-1.558,0.025-3.107,0.053-4.649c0.195-10.715,0.889-21.045,2.011-30.992
			c1.1-10.033,2.595-19.675,4.394-28.901c1.299-6.663,2.758-13.106,4.337-19.326c11.758-46.319,30.305-80.141,41.078-97.8
			l604.938-412.224l52.349-35.673c17.682-12.048,13.778-39.156-6.581-45.739L843.416,267.522
			c-29.562-9.538-61.914-5.132-87.906,11.936C571.945,400.217,388.436,520.977,204.925,641.737
			c-14.111,29.283-33.857,78.089-42.503,141.452c-2.398,17.515-3.904,36.144-4.239,55.778c-0.39,24.263,1.116,47.132,3.904,68.384
			c8.478,65.483,29.005,115.628,42.838,144.409l1226.95,571.613c40.383,18.797,87.739,14.111,123.66-12.16l108.943-79.73
			c1.911,14.649,2.28,23.736,2.28,23.736s29.274-24.129,44.099-57.677l20.194-14.779l43.874,23.109c0,0,1.276-22.333-1.627-54.028
			l429.764-314.521C2211.873,1130.854,2215.89,1119.363,2212.264,1108.32z"/>
		<g>
			<path style="fill:#D0C9AD;" d="M1593.82,1350.518c0,0,0.088,0.091,0.254,0.262
				C1593.908,1350.607,1593.82,1350.518,1593.82,1350.518z"/>
			<path style="fill:#D0C9AD;" d="M1904.01,1206.718l-168.012,114.102c2.274,3.935,4.418,7.945,6.437,12.01l179.255-121.737
				l196.113-133.186v-16.382l-8.037,5.458L1904.01,1206.718z"/>
		</g>
		<path style="fill:#AEA992;" d="M1899.671,993.899l-427.885,290.588c-1.58,6.221-3.038,12.664-4.337,19.326l367.317-249.455
			l226.577-153.874l56.46-38.344V845.76l-126.11,85.645L1899.671,993.899z"/>
		<path style="fill:#AEA992;" d="M1919.829,1052.131l-180.943,122.884l-277.843,188.692c-0.029,1.542-0.046,3.091-0.053,4.649
			c-0.032,3.946,0.004,7.845,0.101,11.698l257.739-175.037l189.322-128.574l69.743-47.364l139.907-95.015v-16.382l-156.856,106.525
			L1919.829,1052.131z"/>
		<path style="fill:#AEA992;" d="M1868.559,1158.872l-201.247,136.672l-201,136.505c0.871,4.926,1.833,9.736,2.868,14.433
			l124.39-84.477c-1.548-1.601-3.129-3.175-4.743-4.721l4.993-6.767l69.826-47.42l37.561-25.509c2.41,2.119,4.743,4.309,7.001,6.564
			l148.675-100.969l195.422-132.717l65.499-44.482v-16.382l-82.447,55.992L1868.559,1158.872z"/>
		<path style="fill:#AEA992;" d="M1487.795,1505.763l133.788-90.859l6.493-4.409c-1.127-2.133-2.287-4.255-3.482-6.364
			c-1.041-1.838-2.107-3.666-3.198-5.482l-138.649,94.16C1484.401,1497.31,1486.092,1501.629,1487.795,1505.763z"/>
		<path style="fill:#AEA992;" d="M1904.01,1206.718l-168.012,114.102c2.274,3.935,4.418,7.945,6.437,12.01l179.255-121.737
			l196.113-133.186v-16.382l-8.037,5.458L1904.01,1206.718z"/>
		<path style="fill:#D12D24;" d="M1773.297,1451.844c-0.455-4.971-1.013-10.173-1.694-15.554c-0.577-4.555-1.245-9.24-2.011-14.023
			c-1.621-10.098-3.695-20.637-6.34-31.33c-0.699-2.827-1.438-5.665-2.221-8.508c0-0.003-0.002-0.006-0.002-0.008
			c-4.591-16.697-10.64-33.583-18.594-49.591c-2.019-4.066-4.163-8.075-6.437-12.01c-7.681-13.294-16.85-25.741-27.79-36.666
			c-2.258-2.255-4.591-4.445-7.001-6.564l-37.561,25.509l-69.826,47.42l-4.993,6.767c1.614,1.546,3.195,3.12,4.743,4.721
			c10.777,11.142,19.974,23.586,27.825,36.643c1.091,1.816,2.157,3.644,3.198,5.482c1.194,2.109,2.354,4.231,3.482,6.364
			c8.722,16.498,15.493,33.616,20.746,50.055c0.001,0.003,0.001,0.005,0.002,0.008c0.485,1.516,0.956,3.027,1.415,4.531
			c3.965,12.996,6.993,25.485,9.297,36.81c0.97,4.769,1.814,9.331,2.545,13.637c0.99,5.824,1.774,11.181,2.396,15.948
			c1.911,14.649,2.28,23.736,2.28,23.736s29.274-24.129,44.099-57.677c3.049-6.899,5.487-14.196,6.933-21.763l13.261,6.985
			l43.874,23.109C1774.924,1505.872,1776.2,1483.539,1773.297,1451.844z"/>
		<path style="fill:#A6261A;" d="M1667.432,1529.321c-0.148-5.747-0.49-11.391-1.007-16.928c-0.451-4.824-1.033-9.567-1.735-14.224
			c-1.966-13.056-4.86-25.44-8.372-37.069c-0.481-1.592-0.973-3.171-1.475-4.734c-0.002-0.003-0.003-0.005-0.003-0.008
			c-6.017-18.694-13.569-35.339-21.292-49.582c-2.128-3.925-4.269-7.667-6.393-11.22c-0.117-0.195-0.233-0.389-0.349-0.582
			c-10.445-17.371-20.469-30.141-26.67-37.428c-3.178-3.735-5.351-6.03-6.063-6.767c-0.166-0.171-0.254-0.262-0.254-0.262
			l-4.993,6.767c1.614,1.546,3.195,3.12,4.743,4.721c10.777,11.142,19.974,23.586,27.825,36.643
			c1.091,1.816,2.157,3.644,3.198,5.482c1.194,2.109,2.354,4.231,3.482,6.364c8.722,16.498,15.493,33.616,20.746,50.055
			c0.001,0.003,0.001,0.005,0.002,0.008c0.485,1.516,0.956,3.027,1.415,4.531c3.965,12.996,6.993,25.485,9.297,36.81
			c0.97,4.769,1.814,9.331,2.545,13.637c0.99,5.824,1.774,11.181,2.396,15.948c1.911,14.649,2.28,23.736,2.28,23.736
			C1667.448,1546.378,1667.649,1537.74,1667.432,1529.321z"/>
		<g>
			<path style="fill:#DC4A22;" d="M1466.313,1432.049c-2.859-16.16-4.758-33.534-5.223-51.995
				c-0.097-3.853-0.133-7.752-0.101-11.698c0.007-1.558,0.025-3.107,0.053-4.649c0.195-10.715,0.889-21.045,2.011-30.992
				l-23.525-9.94l-14.869-6.282l-38.155-16.121L162.422,783.189c-2.398,17.515-3.904,36.144-4.239,55.778
				c-0.39,24.263,1.116,47.132,3.904,68.384l1245.167,536.738l25.283,10.899l14.755,6.36l29.094,12.541
				c-2.641-8.625-5.08-17.773-7.204-27.406C1468.146,1441.785,1467.184,1436.975,1466.313,1432.049z"/>
			<path style="fill:#DC4A22;" d="M2149.966,1121.332l-9.627-3.046l-22.536-7.13v22.854l-133.101,92.678l-223.671,155.741
				c0.783,2.843,1.522,5.681,2.221,8.508l242.417-159.059l92.321-60.576l19.813-12.999l34.172-22.422
				c4.216-2.767,4.673-8.221,2.017-11.733C2153.04,1122.889,2151.69,1121.877,2149.966,1121.332z"/>
			<path style="fill:#DC4A22;" d="M1608.496,1488.638l-95.622,66.582l96.336-63.21l41.029-26.921
				c-0.459-1.504-0.93-3.015-1.415-4.531L1608.496,1488.638z"/>
			<path style="fill:#DC4A22;" d="M2163.57,693.052L843.416,267.522c-29.562-9.538-61.914-5.132-87.906,11.936
				C571.945,400.217,388.436,520.977,204.925,641.737l1209.639,503.993l98.301,40.957l604.938-412.224l52.349-35.673
				C2187.833,726.742,2183.929,699.634,2163.57,693.052z"/>
		</g>
		<path style="fill:#F3A318;" d="M1472.509,1109.495c5.111,2.131,10.516,3.181,15.896,3.181c8.186,0,16.317-2.43,23.285-7.177
			l520.758-354.862l-1.57-2.304l1.57,2.304c3.806-2.587,6.619-5.915,8.47-9.587c1.822-3.613,2.715-7.561,2.707-11.466
			c0.029-10.352-6.253-20.728-17.721-24.428L856.256,328.137c-9.384-3.028-19.076-4.517-28.722-4.517
			c-18.11,0-36.066,5.247-51.55,15.416c-142.115,93.493-235.995,169.809-365.623,258.796c-12.071,8.273-17.92,21.186-17.903,33.929
			c-0.022,15.672,8.815,31.347,25.453,38.273l1012.907,422.089L1472.509,1109.495z M420.056,664.883
			c-14.446-6.026-22-19.48-22.022-33.124c0.017-11.082,4.988-22.116,15.484-29.33c129.844-89.14,223.66-165.406,365.53-258.733
			c14.563-9.563,31.453-14.499,48.486-14.499c9.072,0,18.184,1.4,27.01,4.247L2024.19,710.462c9.03,2.927,13.83,10.925,13.859,19.12
			c-0.018,6.215-2.771,12.36-8.743,16.445v0l-3.324,2.265l-517.433,352.596c-6.029,4.107-13.059,6.209-20.144,6.209
			c-4.655,0-9.329-0.908-13.751-2.751l-42.209-17.589L420.056,664.883z"/>
	</g>
</g>
</svg>
